<?xml version="1.0" encoding="UTF-8"?>
<svg width="250px" height="59px" viewBox="0 0 250 59" version="1.1" xmlns="http://www.w3.org/2000/svg" xmlns:xlink="http://www.w3.org/1999/xlink">
    <!-- Generator: Sketch 51.2 (57519) - http://www.bohemiancoding.com/sketch -->
    <title>logo_gray </title>
    <desc>Created with Sketch.</desc>
    <defs>
        <polygon id="path-1" points="0 0.0532015066 68.4047395 0.0532015066 68.4047395 58.5194444 0 58.5194444"></polygon>
    </defs>
    <g id="1110" stroke="none" stroke-width="1" fill="none" fill-rule="evenodd">
        <g id="ШАПКА-ДЕСКТОП" transform="translate(-406.000000, -20.000000)">
            <g id="menu">
                <g id="logo_gray-" transform="translate(406.000000, 20.000000)">
                    <polygon id="Fill-1" fill="#CC0042" points="85.3635436 30.4087414 79.7623195 30.4087414 78.4412272 45.8933616 82.072897 45.8933616 83.0663057 34.2607502 86.513732 45.8933616 90.4438952 45.8933616 96.1466573 34.2607502 95.1538763 45.8933616 98.7874294 45.8933616 100.113387 30.4087414 94.5418236 30.4087414 88.7935499 42.5024325"></polygon>
                    <polygon id="Fill-2" fill="#5A5E61" points="188.838638 33.1981952 187.754049 45.9223007 191.577181 45.9223007 192.662869 33.1981952 198.582831 33.1981952 198.820276 30.4370527 183.339422 30.4370527 183.107156 33.1981952"></polygon>
                    <polygon id="Fill-3" fill="#5A5E61" points="234.460436 30.41199 234.228013 33.1729755 239.959652 33.1729755 238.875063 45.897081 242.698509 45.897081 243.783883 33.1729755 249.704002 33.1729755 249.94129 30.41199"></polygon>
                    <g id="Group-41" transform="translate(0.000000, 0.103735)">
                        <path d="M101.778437,45.7934401 L111.585719,45.7934401 C114.250973,45.7934401 115.38688,45.6481168 116.322536,45.1663214 C117.780948,44.414909 118.803547,42.8934087 118.947301,41.2435342 C119.056372,39.8948211 118.637508,38.5242938 117.89096,37.8290647 C116.921563,36.9012555 115.521532,36.550973 112.883114,36.550973 L110.005524,36.550973 C108.709228,36.550973 108.283145,36.5079724 107.766353,36.2975204 C107.140804,36.0418707 106.812806,35.4834903 106.873227,34.7871626 C106.940082,33.9762712 107.446987,33.3693974 108.216447,33.2108914 C108.789266,33.0916196 108.928468,33.0693346 110.627621,33.0693346 L117.535342,33.0693346 L118.882172,30.3099184 L109.999404,30.3099184 C107.901004,30.3099184 106.951067,30.3788136 106.12307,30.6339925 C104.215662,31.189705 102.804802,32.9089454 102.635154,34.8816384 C102.523886,36.2284683 103.034557,37.4822348 104.04162,38.2929692 C104.922348,38.9933773 106.294601,39.3174513 108.449027,39.3174513 L111.761174,39.3174513 C112.620716,39.3174513 113.31516,39.4105148 113.676271,39.5935028 C114.374168,39.8948211 114.754426,40.5227244 114.693691,41.2435342 C114.637665,41.845543 114.269178,42.3500942 113.683176,42.6587884 C113.201538,42.9130257 112.412618,43.0305712 110.984495,43.0305712 L103.003013,43.0305712 L101.778437,45.7934401 Z" id="Fill-4" fill="#CC0042"></path>
                        <path d="M203.935515,39.4258632 L206.953876,34.0192404 L209.048509,39.4258632 L203.935515,39.4258632 Z M209.452935,30.305022 L205.06436,30.305022 L196.311221,45.7896422 L200.805885,45.7896422 L202.838999,42.1903013 L209.677668,42.1903013 L211.090254,45.7896422 L215.560907,45.7896422 L209.452935,30.305022 Z" id="Fill-6" fill="#5A5E61"></path>
                        <path d="M157.51232,34.8278092 L156.933851,41.357941 C156.717906,42.6911174 155.688873,43.0081293 154.414391,43.03371 L151.680085,43.03371 C149.302495,43.03371 149.554222,41.7873195 149.569758,41.2757062 L150.148227,34.7455744 C150.365741,33.4134965 151.394774,33.0952291 152.669413,33.0712178 L155.403249,33.0712178 C157.781152,33.0712178 157.529269,34.3174513 157.51232,34.8278092 M157.725753,30.318393 L157.737053,30.2954802 L151.100361,30.2954802 L151.100361,30.298462 C147.881591,30.3067797 146.181654,31.3882298 145.999765,33.5473635 L145.274874,42.5231952 C145.104284,44.5897363 146.47748,45.6686755 149.358208,45.7851224 L149.345339,45.8078782 L155.983286,45.8078782 L155.983286,45.8052103 C159.200643,45.7978343 160.901993,44.7149718 161.08247,42.5563089 L161.807203,33.5798493 C161.979206,31.5133082 160.604755,30.4348399 157.725753,30.318393" id="Fill-8" fill="#5A5E61"></path>
                        <path d="M230.647379,45.8023384 L221.843079,45.8023384 C218.59967,45.8023384 217.069068,44.7064501 217.251271,42.5179692 L217.976004,33.5413528 C218.157737,31.3728029 219.870543,30.2899404 223.113638,30.2899404 L232.402715,30.2899404 L231.045213,33.0598713 L224.811692,33.0598713 C223.458898,33.0598713 222.349043,33.3494193 222.124466,34.7395637 L221.545998,41.2701664 C221.528892,41.7816227 221.278892,43.0280132 223.656325,43.0280132 L231.875251,43.0280132 L230.647379,45.8023384 Z" id="Fill-10" fill="#5A5E61"></path>
                        <path d="M141.66064,45.8023384 L132.856183,45.8023384 C129.612775,45.8023384 128.082329,44.7064501 128.264218,42.5179692 L128.989109,33.5413528 C129.170998,31.3728029 130.883647,30.2899404 134.126428,30.2899404 L143.415662,30.2899404 L142.058318,33.0598713 L135.824953,33.0598713 C134.472003,33.0598713 133.362304,33.3494193 133.137414,34.7395637 L132.558945,41.2701664 C132.541996,41.7816227 132.291996,43.0280132 134.669272,43.0280132 L142.888198,43.0280132 L141.66064,45.8023384 Z" id="Fill-12" fill="#5A5E61"></path>
                        <polygon id="Fill-14" fill="#5A5E61" points="175.705006 40.3049592 176.633914 30.2900502 180.455634 30.2900502 179.015584 45.8022913 175.193864 45.8022913 169.196061 35.6734463 168.257109 45.8022913 164.428327 45.8022913 165.866651 30.2900502 169.69559 30.2900502"></polygon>
                        <path d="M189.885844,56.5310421 C189.342844,57.7821406 188.187163,58.5373195 186.688418,58.5373195 C184.533679,58.5373195 183.606497,57.1007219 183.768142,55.2553045 L183.960703,53.050973 C184.112461,51.3171375 185.299843,49.7818267 187.454739,49.7818267 C188.965568,49.7818267 189.960232,50.5864407 190.288387,51.7877903 L188.827935,52.3452291 C188.675863,51.6763653 188.159856,51.2058694 187.329975,51.2058694 C186.178374,51.2058694 185.556748,52.0850282 185.477338,52.98914 L185.276773,55.2802574 C185.194539,56.2214062 185.660483,57.1256748 186.812241,57.1256748 C187.629724,57.1256748 188.241306,56.642624 188.513591,55.9367232 L189.885844,56.5310421 Z" id="Fill-16" fill="#CC0042"></path>
                        <path d="M192.911331,57.3360954 C193.543001,57.3360954 194.167137,57.1380414 194.299121,56.4815756 C194.320151,56.3823917 194.328782,56.2833647 194.36221,55.8996547 L192.938167,55.8996547 C192.232109,55.8996547 191.921218,56.1968927 191.887947,56.5807596 C191.855148,56.9520716 192.094162,57.3360954 192.911331,57.3360954 M195.901601,54.3017263 L195.537508,58.4632141 L194.137947,58.4632141 L194.185813,57.9180163 C194.185813,57.9180163 194.174513,57.9057753 194.161959,57.9057753 C193.802103,58.3392341 193.12963,58.5248901 192.510201,58.5248901 C191.209824,58.5248901 190.44978,57.8687382 190.553986,56.6796296 C190.640615,55.6888889 191.433773,54.8348399 192.796139,54.8348399 L194.455587,54.8348399 L194.494821,54.3886692 C194.535938,53.9180163 194.311676,53.5091965 193.357659,53.5091965 C192.689109,53.5091965 192.228029,53.6826114 191.852166,54.0172003 L191.191306,53.0758945 C191.837884,52.4814187 192.685813,52.2708098 193.540647,52.2708098 C194.915097,52.2708098 196.040333,52.7165097 195.901601,54.3017263" id="Fill-18" fill="#CC0042"></path>
                        <path d="M198.665866,58.463167 C197.712163,58.463167 196.988371,58.1039391 197.099011,56.8405995 L197.74355,49.4719554 L199.142954,49.4719554 L198.516777,56.6301475 C198.476915,57.0885593 198.68768,57.2244664 199.058992,57.2244664 L199.306795,57.2244664 L199.198666,58.463167 L198.665866,58.463167 Z" id="Fill-20" fill="#CC0042"></path>
                        <path d="M201.95419,58.463167 C201.000487,58.463167 200.276381,58.1039391 200.387335,56.8405995 L201.031403,49.4719554 L202.430807,49.4719554 L201.804787,56.6301475 C201.764768,57.0885593 201.975534,57.2244664 202.347316,57.2244664 L202.594648,57.2244664 L202.486519,58.463167 L201.95419,58.463167 Z" id="Fill-22" fill="#CC0042"></path>
                        <polygon id="Fill-24" fill="#CC0042" points="203.882172 55.8496547 203.993911 54.5743879 207.932235 54.5743879 207.820496 55.8496547"></polygon>
                        <path d="M212.226475,58.5373352 C210.752527,58.5373352 209.495465,57.6208255 209.689438,55.4037822 C209.884196,53.1749686 211.362853,52.2706999 212.824561,52.2706999 C213.654127,52.2706999 214.321422,52.5682517 214.841196,53.1377746 L213.851554,54.1161174 C213.524812,53.7444915 213.133569,53.5462806 212.73699,53.5462806 C211.808396,53.5462806 211.237461,54.1286723 211.125722,55.4037822 C211.015239,56.6674357 211.45984,57.2493566 212.400989,57.2493566 C212.809965,57.2493566 213.263355,57.0137947 213.640631,56.6674357 L214.472866,57.6333804 C213.828327,58.2027464 213.06844,58.5373352 212.226475,58.5373352" id="Fill-26" fill="#CC0042"></path>
                        <path d="M216.631434,54.8096359 L218.984699,54.8096359 C219.007768,53.9799121 218.563638,53.5337414 217.932125,53.5337414 C217.2879,53.5337414 216.776287,54.0047081 216.631434,54.8096359 Z M216.520009,55.8002197 C216.452997,56.5682674 216.787429,57.2740113 217.691541,57.2740113 C218.050612,57.2740113 218.696563,57.1131513 219.191384,56.6919335 C219.459589,57.0263653 219.655132,57.3361582 219.923336,57.6704331 C219.186676,58.302103 218.299357,58.5373509 217.531466,58.5373509 C216.230932,58.5373509 214.885672,57.9180791 215.104755,55.4165097 C215.311598,53.0510044 216.792765,52.2584746 218.056105,52.2584746 C219.702841,52.2584746 220.593299,53.4102323 220.437147,55.1936598 L220.383945,55.8002197 L216.520009,55.8002197 Z" id="Fill-28" fill="#CC0042"></path>
                        <path d="M224.911221,58.463167 L225.229959,54.821924 C225.29807,54.0419492 224.991416,53.5835374 224.21097,53.5835374 C223.542106,53.5835374 222.994397,54.0419492 222.926287,54.821924 L222.607706,58.463167 L221.208302,58.463167 L221.745653,52.3206685 L223.145056,52.3206685 L223.08903,52.9647363 L223.113826,52.9647363 C223.548697,52.5185656 224.214579,52.2707627 224.771861,52.2707627 C226.022803,52.2707627 226.78834,53.0017734 226.66279,54.438371 L226.310625,58.463167 L224.911221,58.463167 Z" id="Fill-30" fill="#CC0042"></path>
                        <path d="M229.597552,58.463167 C228.693754,58.463167 228.073697,57.9057282 228.159228,56.9273854 L228.462586,53.4597144 L227.756685,53.4597144 L227.85634,52.3206685 L228.574482,52.3206685 L228.71447,50.7227401 L230.076836,50.7227401 L229.936692,52.3206685 L230.877997,52.3206685 L230.778657,53.4597144 L229.849592,53.4597144 L229.580132,56.5433616 C229.541996,56.9768205 229.667702,57.2370213 230.089077,57.2370213 L230.547175,57.2370213 L230.439987,58.463167 L229.597552,58.463167 Z" id="Fill-32" fill="#CC0042"></path>
                        <path d="M233.080038,54.8096359 L235.433145,54.8096359 C235.456058,53.9799121 235.012398,53.5337414 234.380571,53.5337414 C233.736817,53.5337414 233.22489,54.0047081 233.080038,54.8096359 Z M232.968613,55.8002197 C232.901287,56.5682674 233.236033,57.2740113 234.140458,57.2740113 C234.499058,57.2740113 235.144852,57.1131513 235.639987,56.6919335 C235.908035,57.0263653 236.103892,57.3361582 236.371783,57.6704331 C235.635436,58.302103 234.74796,58.5373509 233.979912,58.5373509 C232.679535,58.5373509 231.334432,57.9180791 231.553202,55.4165097 C231.760358,53.0510044 233.241368,52.2584746 234.504865,52.2584746 C236.151758,52.2584746 237.041431,53.4102323 236.885593,55.1936598 L236.832549,55.8002197 L232.968613,55.8002197 Z" id="Fill-34" fill="#CC0042"></path>
                        <path d="M239.373132,54.7848085 L239.050314,58.4754865 L237.65091,58.4754865 L238.188104,52.3329881 L239.562869,52.3329881 L239.499153,53.0636849 L239.548588,53.0636849 C239.966667,52.5310421 240.496955,52.2706842 241.104143,52.2706842 C241.562241,52.2706842 241.926491,52.3576271 242.239893,52.5928751 L241.609008,53.8560578 C241.281011,53.6456058 240.95317,53.5713748 240.631136,53.5713748 C239.962116,53.5713748 239.442341,53.9924357 239.373132,54.7848085" id="Fill-36" fill="#CC0042"></path>
                        <g id="Group-40">
                            <mask id="mask-2" fill="white">
                                <use xlink:href="#path-1"></use>
                            </mask>
                            <g id="Clip-39"></g>
                            <path d="M41.4576271,44.884322 C41.4606089,44.9163371 41.4654739,44.9452134 41.4682988,44.9797395 C41.5393911,45.0506748 41.6131513,45.1222379 41.6949153,45.1829724 C41.7504708,45.1088983 41.8057125,45.0217985 41.8666039,44.9378374 C41.8636221,44.9031544 41.858914,44.874435 41.8559322,44.842263 C41.7795041,44.7765066 41.7057439,44.7107502 41.6359071,44.6421689 C41.5712492,44.7239328 41.5119272,44.802715 41.4576271,44.884322 Z M42.665725,47.6917608 C42.7860954,47.6785782 42.9099184,47.6680634 43.0342122,47.6522128 C43.0091023,47.4357972 42.9863465,47.2192247 42.9613936,47.0029661 C42.8454175,47.0958726 42.7292844,47.1881513 42.6208412,47.2721124 C42.6359071,47.4179065 42.6503453,47.5544413 42.665725,47.6917608 Z M43.8926554,44.8218613 C43.9745763,44.7082392 44.06199,44.5946171 44.1450094,44.483349 C44.0378217,44.4174357 43.9323603,44.3516792 43.8308223,44.2835687 C43.8028876,44.2859228 43.7795041,44.2882768 43.7532957,44.2909448 C43.6898933,44.3778876 43.6301004,44.4627903 43.5787822,44.5418864 C43.5827056,44.5811205 43.5880414,44.6233365 43.5905524,44.6578625 C43.6605461,44.7212649 43.7369743,44.7739956 43.8160703,44.8315913 C43.8399247,44.8290804 43.8651915,44.8267263 43.8926554,44.8218613 Z M45.5010986,50.2400973 C45.5375078,50.2350753 45.5800377,50.2300534 45.6224105,50.2267577 C45.6156623,50.1610013 45.6073446,50.0977558 45.5998117,50.0269774 C45.5574388,50.0319994 45.5150659,50.0374922 45.4783427,50.0423572 C45.4861896,50.1107815 45.4945072,50.1741839 45.5010986,50.2400973 Z M43.1450094,48.6440521 C43.1539548,48.7204802 43.1621155,48.7947112 43.1699623,48.8632925 C43.2992781,48.7791745 43.420747,48.6919178 43.5456685,48.6045041 C43.5390772,48.525408 43.5288763,48.4491368 43.5205587,48.3700408 C43.4524482,48.3774168 43.3848085,48.3857345 43.3231325,48.3907564 C43.2650659,48.4755022 43.2043315,48.5624451 43.1450094,48.6440521 Z M32.9992153,53.3217043 C33.0323289,53.3165254 33.069209,53.3110326 33.1062461,53.3086786 C33.7802888,53.2319366 34.4293785,52.7463748 35.0729755,51.8631356 C35.0704645,51.8309636 35.0652856,51.7965945 35.0640301,51.7653641 C34.6231952,51.4745606 34.1942875,51.1826585 33.7617702,50.88699 C33.7868801,50.7783898 33.8198368,50.6646108 33.849027,50.5487916 C33.7749529,50.4828782 33.6996234,50.4120998 33.6301004,50.3403798 C33.6457941,50.2327213 33.6599184,50.1214532 33.6749843,50.0078311 C33.5768989,50.0185028 33.4847772,50.0293315 33.391086,50.0400031 C33.1235091,50.5123823 32.9016008,50.7578311 32.7539234,50.7733679 C32.7671061,50.896877 32.9810107,51.0269774 33.408349,51.1635122 C33.4110169,51.1955273 33.4160389,51.2325643 33.4190207,51.2614407 C33.3556183,51.9889987 33.2021343,52.617059 32.9836786,53.1316541 C32.990113,53.1981952 32.9941933,53.2583019 32.9992153,53.3217043 Z M43.6789077,46.2562618 C43.6767106,46.2276993 43.6724733,46.1928594 43.6671375,46.1617859 C43.5918079,46.0982266 43.5205587,46.0301161 43.4524482,45.9632611 C43.4154112,46.0111268 43.383553,46.0530289 43.3531073,46.0982266 C43.3548336,46.1296139 43.3596987,46.1617859 43.3625235,46.1961551 C43.4337728,46.2670904 43.5116133,46.3353578 43.5853735,46.4047238 C43.6131513,46.3568581 43.6420276,46.3089925 43.6789077,46.2562618 Z M31.7407407,52.8970339 C31.7358757,52.8359856 31.7275581,52.7725832 31.722693,52.7101224 C31.6197426,52.7200094 31.5193032,52.7306811 31.4218456,52.7411959 C31.4954488,52.7998901 31.566855,52.8549749 31.646108,52.9075487 C31.6778092,52.9051946 31.7106089,52.8993879 31.7407407,52.8970339 Z M31.329096,45.0481638 C31.3399247,45.166651 31.3518519,45.2860797 31.3609542,45.4044099 C31.4139987,45.3995449 31.470182,45.3937382 31.52715,45.3854206 C31.5150659,45.2669335 31.5061205,45.1508004 31.4930948,45.0323132 C31.4362837,45.0373352 31.3822976,45.0431419 31.329096,45.0481638 Z M34.2313245,45.4226146 C34.1392028,45.4728343 34.0442561,45.515521 33.9521343,45.5550691 C33.9568424,45.5994821 33.9596673,45.6366761 33.9651601,45.6760672 C34.0332706,45.7393126 34.1060891,45.7947112 34.1800063,45.8530917 C34.210295,45.8471281 34.2419962,45.8446171 34.2738544,45.842263 C34.2671061,45.7765066 34.2594162,45.7156152 34.2551789,45.6448368 C34.287037,45.6019931 34.3185813,45.5599341 34.3556183,45.5098713 C34.3107345,45.4860169 34.2707156,45.4596516 34.2313245,45.4226146 Z M34.9646893,46.8711394 C34.9915254,46.7633239 35.0161645,46.6440521 35.0411174,46.5337257 C34.9067797,46.5467514 34.7721281,46.560091 34.6374765,46.5756277 C34.6428123,46.6234934 34.6483051,46.6679065 34.6511299,46.7132611 C34.7248901,46.7633239 34.7988073,46.8232737 34.8777464,46.881968 C34.9030132,46.8760044 34.9358129,46.8738073 34.9646893,46.8711394 Z M33.9620213,46.560091 C34.0266792,46.6283584 34.091494,46.6942718 34.1523854,46.7633239 C34.1894225,46.7601852 34.227715,46.7550063 34.2682046,46.7524953 C34.3287822,46.6704175 34.3868487,46.5888104 34.4532329,46.5075173 C34.3372567,46.4439579 34.2222222,46.3749058 34.1087571,46.3089925 C34.0613622,46.3937382 34.0125549,46.4775424 33.9620213,46.560091 Z M47.9821092,28.2548493 C47.9899561,28.3143283 47.9978029,28.3736503 48.0061205,28.4251255 C48.07172,28.4212021 48.1352793,28.4144539 48.2035468,28.409275 C48.128688,28.3642341 48.0558694,28.3089925 47.9821092,28.2548493 Z M33.391086,47.0400031 C33.3262712,47.1222379 33.264752,47.203688 33.210295,47.2851381 C33.2498431,47.3113465 33.2947269,47.3411645 33.3438481,47.3673729 C33.349027,47.4142969 33.3526365,47.4598085 33.3556183,47.5040647 C33.4452291,47.4489799 33.5351538,47.3964062 33.6283741,47.3355148 C33.6260201,47.3064815 33.6235091,47.2721124 33.6194288,47.240725 C33.5403327,47.1749686 33.4650031,47.1090552 33.391086,47.0400031 Z M51.0343691,47.5494193 C51.0505336,47.6966259 51.0715631,47.8449309 51.0870998,47.9897834 C51.1768675,47.9789548 51.2760515,47.9690678 51.3694288,47.9583961 C51.3604834,47.8891871 51.3509102,47.8160546 51.3430634,47.7444915 C51.2614564,47.6785782 51.1876962,47.6101538 51.1111111,47.5385907 C51.0781544,47.5434557 51.0585374,47.5470653 51.0343691,47.5494193 Z M49.6478343,32.3899718 C49.6429692,32.3610954 49.6403013,32.3315913 49.636064,32.300204 C49.5613622,32.2393126 49.4912116,32.1708883 49.4201193,32.0993252 C49.396108,32.1365191 49.3684871,32.1708883 49.351381,32.2022756 C49.3592279,32.2451193 49.3633082,32.2895323 49.3684871,32.3265694 C49.3909291,32.3526208 49.4252982,32.381811 49.4595104,32.4080195 C49.5216573,32.4029975 49.5808223,32.3948368 49.6478343,32.3899718 Z M50.5943189,33.948666 C50.5635593,33.9544727 50.5360954,33.9569837 50.5122411,33.9596516 C50.5213434,34.025408 50.5279347,34.0994821 50.5386064,34.1627276 C50.5635593,34.1627276 50.5889831,34.1570778 50.6205273,34.1545669 C50.6096987,34.0913214 50.6031073,34.018032 50.5943189,33.948666 Z M50.5017263,34.4822505 C50.5543001,34.4787979 50.6073446,34.4740898 50.6600753,34.4657721 C50.6547395,34.4370527 50.6522285,34.4080195 50.6468927,34.3734934 C50.5979284,34.3793001 50.5411174,34.384322 50.4883867,34.3866761 C50.4938795,34.4213591 50.4989014,34.4525895 50.5017263,34.4822505 Z M49.6545825,33.943801 C49.7787194,33.9331293 49.8314501,33.8221751 49.8063402,33.626946 C49.7181419,33.4632611 49.636064,33.3025581 49.5547709,33.1314972 C49.5216573,33.1341651 49.4965474,33.1365191 49.4725361,33.1388732 C49.4226303,33.3209196 49.3829253,33.4954331 49.3381984,33.6723007 C49.4422473,33.7619115 49.5516321,33.8515223 49.6545825,33.943801 Z M48.9252982,29.5729598 C48.915882,29.5042216 48.9081921,29.4365819 48.8973635,29.367059 C48.7865662,29.2823132 48.6784369,29.1928594 48.5688952,29.1032486 C48.5097301,29.1082706 48.4475832,29.1137633 48.3987759,29.1189422 C48.4201193,29.285452 48.4409918,29.448823 48.4623352,29.6162743 C48.5809793,29.6346359 48.6999372,29.6544099 48.8261142,29.6727715 C48.8554614,29.6387163 48.8884181,29.607172 48.9252982,29.5729598 Z M49.2222222,28.2391557 C49.1878531,28.243236 49.1483051,28.245747 49.113779,28.2481011 C49.1217828,28.3180948 49.1310421,28.3857345 49.1376334,28.4489799 C49.1716886,28.4461551 49.2113936,28.4436441 49.2496861,28.4397207 C49.2418393,28.3763183 49.232737,28.3061676 49.2222222,28.2391557 Z M48.5969868,49.1404426 C48.5885122,49.3221751 48.5783114,49.5090866 48.5753296,49.6941149 C48.6837728,49.7520245 48.7865662,49.8045982 48.8907721,49.8606246 C48.9557439,49.85215 49.0161645,49.8450879 49.0863151,49.8391243 C49.0401758,49.4565129 48.8708412,49.2168707 48.5969868,49.1404426 Z M49.2539234,46.5542844 C49.2867232,46.5098713 49.3170119,46.4679692 49.3488701,46.4152385 C49.3433773,46.3854206 49.3403955,46.3518362 49.3356874,46.3173101 C49.2933145,46.2826271 49.2514124,46.2487288 49.2113936,46.2094947 C49.1850282,46.2120056 49.1563089,46.2143597 49.1233522,46.2167137 C49.0863151,46.2670904 49.0558694,46.3066384 49.0293471,46.3518362 C49.0348399,46.3854206 49.0373509,46.4201036 49.0425298,46.448823 C49.0795669,46.4941777 49.1192718,46.5282329 49.1654112,46.5649561 C49.198054,46.562602 49.2299121,46.560091 49.2539234,46.5542844 Z M29.8570308,53.2476303 C29.8600126,53.2821563 29.8678594,53.3143283 29.8703704,53.3479127 C29.967828,53.3800847 30.0682674,53.4196328 30.1710609,53.4508632 C30.2027621,53.4039391 30.2408977,53.3502668 30.2818581,53.3009887 C30.2806026,53.2664626 30.2782486,53.2344476 30.2751099,53.2005493 C30.2237916,53.1610013 30.1790647,53.1216102 30.1368487,53.0764124 C30.0433145,53.1373038 29.9521343,53.1923886 29.8570308,53.2476303 Z M46.2619272,49.0771971 C46.3228186,49.1404426 46.388575,49.1978814 46.4532329,49.2564187 C46.4861896,49.2506121 46.5257376,49.245747 46.5681105,49.243236 C46.5627746,49.20871 46.5604206,49.1798336 46.5547709,49.1453076 C46.4519774,49.0508318 46.3438481,48.9527464 46.2379159,48.8604677 C46.2463905,48.9346987 46.2553358,49.0054771 46.2619272,49.0771971 Z M53.8995606,31.9940207 C53.7967671,32.1051318 53.6939736,32.2153013 53.5899247,32.3265694 C53.5988701,32.3973478 53.6118958,32.4712649 53.6202134,32.5370213 C53.680791,32.5323132 53.7479598,32.5265066 53.8127746,32.5216416 C53.8177966,32.5635436 53.8231325,32.6007376 53.8272128,32.6349498 C53.8494978,32.5982266 53.8697426,32.5586786 53.8840239,32.5133239 C53.9091337,32.5108129 53.9391086,32.5084589 53.9708098,32.5059479 C54.0053358,32.545339 54.0528876,32.580022 54.0976146,32.6087414 C54.1214689,32.6087414 54.1465788,32.6065443 54.1793785,32.6030917 C54.2084118,32.5669962 54.2321092,32.5239956 54.2650659,32.4820935 C54.2614564,32.4475675 54.2559636,32.4185342 54.2532957,32.3873038 C54.0951036,32.4029975 53.9736347,32.268032 53.8995606,31.9940207 Z M53.8697426,32.943801 C53.920747,32.9390929 53.9708098,32.9331293 54.0276208,32.9281073 C53.960452,32.8590552 53.9023854,32.7956529 53.83914,32.7272285 C53.8494978,32.8016164 53.8601695,32.86957 53.8697426,32.943801 Z M52.2402699,36.307737 C52.2308537,36.2386849 52.2241055,36.1704175 52.2140615,36.0994821 C52.0870998,36.1126648 51.9591965,36.1225518 51.8312932,36.1357345 C51.8444758,36.2386849 51.8575016,36.3364564 51.8708412,36.4394068 C51.9369115,36.5029661 52.0106717,36.5687225 52.081764,36.627103 C52.1344947,36.5210138 52.1822034,36.4130414 52.2402699,36.307737 Z M54.200408,38.2123195 C54.2255179,38.2099655 54.2452919,38.2074545 54.2715003,38.2074545 C54.2627119,38.1382454 54.2532957,38.067467 54.2429379,37.995904 C54.2189266,37.9984149 54.1925612,38.0017106 54.1716886,38.0040647 C54.1818895,38.0748431 54.1916196,38.1464062 54.200408,38.2123195 Z M33.5613622,48.815113 C33.6349655,48.8736503 33.7090395,48.926381 33.7868801,48.9791117 C33.8777464,48.9453704 33.9704959,48.9083333 34.0638732,48.8632925 C34.0586943,48.7862367 34.049592,48.7074545 34.0415882,48.6283584 C33.851538,48.6523697 33.6588198,48.6704175 33.470339,48.6919178 C33.5021971,48.7363308 33.532172,48.7732109 33.5613622,48.815113 Z M54.2848399,29.1848556 C54.3403955,29.1810891 54.3918707,29.1755964 54.4511927,29.169162 C54.4433459,29.1137633 54.4354991,29.0597772 54.4287508,29.0002982 C54.3774325,29.0633867 54.3327056,29.124435 54.2848399,29.1848556 Z M54.7704018,36.1545669 C54.8311362,36.2204802 54.9033271,36.2837257 54.9686127,36.3449309 C55.0026679,36.3413214 55.039705,36.3389674 55.0737602,36.3341023 C55.1319837,36.2601852 55.183145,36.1859542 55.2399561,36.1126648 C55.22285,35.9802103 55.2059008,35.8485405 55.1858129,35.711064 C55.1186441,35.7168707 55.0582235,35.7242467 54.9919962,35.7300534 C54.9127433,35.8436755 54.8363151,35.9489799 54.7520402,36.0591494 C54.7627119,36.0936755 54.7677338,36.1225518 54.7704018,36.1545669 Z M17.9957627,47.4623195 C17.925769,47.5806497 17.8661331,47.6999215 17.8014752,47.8235876 C17.91086,47.919162 18.0219711,48.0159918 18.1285311,48.1115662 C18.1884809,47.9979441 18.247489,47.884322 18.3146579,47.7708569 C18.306811,47.6941149 18.3013183,47.6129787 18.2961394,47.5335687 C18.190678,47.5123823 18.0878845,47.4885279 17.9957627,47.4623195 Z M55.3374137,32.8038136 C55.3022599,32.7667765 55.2650659,32.7330352 55.2346202,32.6903484 C55.1319837,32.6959981 55.0342122,32.7058851 54.9391086,32.7140458 C54.9522913,32.8168393 54.9686127,32.9147677 54.9800691,33.0122254 C55.0473949,33.0837884 55.1209981,33.1497018 55.1925612,33.2129473 C55.2399561,33.0781387 55.284683,32.941447 55.3374137,32.8038136 Z M52.6373195,9.44489956 C53.4168236,9.88604834 54.1815756,10.4935499 54.9312618,11.2882768 C54.9391086,11.342263 54.9456999,11.3976616 54.9522913,11.4478814 C54.8615819,11.5877119 54.7652228,11.723462 54.6701193,11.8581136 C54.5801946,11.8384965 54.4934087,11.8146422 54.398462,11.7961237 C54.319366,11.9216729 54.237602,12.0467514 54.1556811,12.1733992 C54.1716886,12.2710138 54.4433459,12.4108443 54.9552731,12.5957156 C55.0946328,12.9439579 55.2321092,13.2945543 55.3717828,13.6388732 C55.4350282,13.6349498 55.4959196,13.6300847 55.559322,13.624592 C55.6330822,13.5558537 55.70543,13.4820935 55.7848399,13.4081764 C55.8548336,13.4703233 55.9285938,13.5345104 56.002511,13.5916353 C56.0194601,13.5517734 56.0444131,13.5122254 56.06199,13.4728343 C56.0869429,13.4703233 56.1156623,13.4689109 56.1450094,13.466086 C56.527307,13.5533427 56.9022285,14.505791 57.2845261,16.3604677 C57.2988073,16.4668707 57.3135593,16.5633867 57.3308223,16.6649247 C57.2790333,16.7295825 57.2317954,16.7838826 57.1845574,16.8430477 C56.2319523,16.9119429 55.2769931,16.9866447 54.3295669,17.0608757 C54.2281858,17.0174043 54.1269617,16.9700094 54.0306026,16.9210452 C53.9485248,16.9830352 53.8719397,17.0448682 53.7944131,17.1030917 C53.4935656,17.1255336 53.1967985,17.1490741 52.9048964,17.1727715 C52.8104206,17.1280446 52.7085687,17.0795512 52.6123666,17.0305869 C52.5596359,17.0908506 52.5042373,17.1464062 52.4515066,17.2074545 C47.5095731,17.5872411 42.5142812,17.973619 37.4791274,18.3626648 C32.3846516,18.7572034 27.2294413,19.1514281 22.0255807,19.5564815 C21.9237288,18.2887476 21.8239171,17.0249372 21.7156309,15.7652072 C20.8303515,16.6955273 19.9373823,17.6201977 19.0455116,18.552715 C19.032172,18.468597 19.0191463,18.3758475 19.0114564,18.2837257 C18.829096,18.3414783 18.6431262,18.3916981 18.4546453,18.4474105 C18.3584432,18.4127276 18.2539234,18.3841651 18.1591337,18.3494821 C18.0957313,18.4193189 18.0376648,18.4960609 17.9797552,18.5633867 C17.8187382,18.5753139 17.6553672,18.5870841 17.4993723,18.5999529 C17.5020402,18.6399718 17.5047081,18.6848556 17.507533,18.7200094 C17.5417451,18.8457156 17.5811362,18.9720496 17.6183302,19.0946171 C17.5364093,19.270543 17.4546453,19.4469397 17.3728814,19.6186284 C17.4824231,19.73586 17.5943189,19.8466573 17.7027621,19.9549435 C16.2754237,21.4483522 14.8399247,22.9478814 13.3888889,24.4623195 C16.5973007,26.9411331 19.8082235,29.4252825 23.032172,31.9175926 C22.9096045,30.3981325 22.7881356,28.8814972 22.6668236,27.3775738 C26.5714062,27.0439266 30.4612367,26.7090239 34.3066541,26.3807125 C38.1228814,26.0558537 41.918236,25.7328782 45.670904,25.4080195 C45.866447,25.4224576 46.0602637,25.4361111 46.2619272,25.4494507 C46.4124294,25.4069209 46.5574388,25.3675298 46.7080979,25.3248431 C48.024639,25.2102793 49.3460452,25.0957156 50.6600753,24.9846045 C54.1884809,24.681403 56.8623666,26.3143283 58.7172003,29.9281073 C59.0155367,30.7512398 59.3212492,31.5717043 59.6329253,32.3973478 C59.3278406,32.5004551 59.1894225,32.617059 59.2091965,32.7380571 C59.3703704,32.7562618 59.5258945,32.7725832 59.6894225,32.7882768 C60.0880414,35.5109699 60.4887006,38.2543785 60.8937539,41.0274482 C61.3686441,44.2727401 60.5138104,47.0925769 58.3134024,49.4728343 C57.4111739,50.2267577 56.2992781,50.7939266 54.9763026,51.1850126 C54.9486817,51.2218927 54.9260829,51.25328 54.9033271,51.2796453 C52.9935656,51.4985719 51.0739171,51.7174984 49.1483051,51.936425 C49.071877,51.8764752 48.9952919,51.8129159 48.915882,51.7470025 C48.732737,51.8416353 48.551946,51.933914 48.373823,52.0261927 C45.7977087,52.3191933 43.2120213,52.614705 40.6159761,52.9102166 C38.0015694,53.2113779 35.3779033,53.5092436 32.735248,53.8096202 C32.5403327,53.8072662 32.3422787,53.8024011 32.146108,53.7889046 C31.9810107,53.8444601 31.8171689,53.8888732 31.6516008,53.933914 C31.1765537,53.9868016 30.6985248,54.0442404 30.2291274,54.0979127 C30.0944758,54.0104991 29.9587257,53.9150816 29.8176397,53.8204488 C29.690678,53.9472536 29.5657564,54.0715474 29.4350282,54.1875235 C26.5417451,54.5175612 23.6159761,54.8516792 20.6897363,55.1861111 L60.8518519,58.5194444 L63.7402699,50.5307439 L63.4817954,42.3072662 L65.2694601,33.8615662 L65.7113936,26.9251255 L66.8352166,23.2816855 L67.0541431,17.0013967 L68.4047395,12.6997646 L52.6373195,9.44489956 Z M15.1541117,48.1007376 C15.2198682,48.0925769 15.2926868,48.0877119 15.3692718,48.0771971 C15.3651915,48.0087728 15.3598556,47.926538 15.3543628,47.8474419 C15.2831136,47.9345417 15.2162586,48.0243095 15.1541117,48.1007376 Z M19.3978343,51.4778562 C19.3303515,51.5569523 19.26742,51.6335374 19.1999372,51.7076114 C19.2024482,51.7543785 19.2038606,51.7995763 19.2088826,51.8441463 C19.3516949,51.8598399 19.4940364,51.8764752 19.6431262,51.88699 C19.6680791,51.8549749 19.6946014,51.8202919 19.7286566,51.7865505 C19.6839297,51.6754394 19.6443817,51.567624 19.6101695,51.4566698 C19.5337414,51.4615348 19.4648462,51.4722065 19.3978343,51.4778562 Z M53.3295669,13.7906309 C53.3074388,13.6336943 53.2824859,13.4715788 53.2614564,13.3105618 C53.158506,13.2841965 53.0610483,13.2524953 52.960452,13.2206372 C52.9394225,13.2603421 52.9169805,13.2997332 52.9000314,13.3367702 C52.9210609,13.4990427 52.9449153,13.661629 52.9659448,13.8182517 C53.0872567,13.8088355 53.2112367,13.7986347 53.3295669,13.7906309 Z M52.5886692,9.74731638 C52.5951036,9.80412743 52.6016949,9.85685813 52.6093848,9.90833333 C52.6572505,9.85434714 52.7110797,9.79329881 52.7625549,9.7353892 C52.7044884,9.738371 52.641086,9.74370684 52.5886692,9.74731638 Z M29.1081293,50.5150502 C29.1159761,50.5938324 29.1224105,50.6730854 29.1290019,50.7520245 C29.2043315,50.8179379 29.2782486,50.8838512 29.3570308,50.9472536 C29.485091,50.933914 29.6118958,50.9182203 29.7357188,50.9051946 C29.730226,50.8344162 29.7237916,50.7601852 29.7189266,50.6861111 C29.6489328,50.614548 29.5830195,50.5414156 29.5178908,50.4671846 C29.3796296,50.4828782 29.2440364,50.4984149 29.1081293,50.5150502 Z M55.6241368,28.9712649 C55.5936911,28.9755022 55.564344,28.9778562 55.5393911,28.9803672 C55.4877589,29.126946 55.4458569,29.2692875 55.398462,29.4103735 C55.4033271,29.4433302 55.4086629,29.4739328 55.4141557,29.5042216 C55.5080038,29.4949623 55.5988701,29.4857031 55.6963277,29.4778562 C55.6702762,29.3129159 55.6492467,29.1429535 55.6241368,28.9712649 Z M55.3746077,35.0469083 C55.4350282,35.0409448 55.4984306,35.0360797 55.5564972,35.03043 C55.5539862,35.0040647 55.5484934,34.9776993 55.5473949,34.948823 C55.485248,34.9538449 55.4231011,34.9596516 55.3615819,34.9645166 C55.3669178,34.9966886 55.3692718,35.020543 55.3746077,35.0469083 Z M58.6894225,44.1410703 C58.6327684,44.1435813 58.5800377,44.1508004 58.5285625,44.156607 C58.5342122,44.1905053 58.5378217,44.2201664 58.5430006,44.2537508 C58.5957313,44.2488858 58.6470496,44.2440207 58.7040176,44.2382141 C58.6986817,44.2035311 58.6949153,44.1723007 58.6894225,44.1410703 Z M56.9679849,31.1948996 C56.962806,31.1658663 56.9574702,31.1340082 56.9518205,31.1049749 C56.9124294,31.1099969 56.8783741,31.1125078 56.8413371,31.1158035 C56.8611111,31.255634 56.7911174,31.3347301 56.6092279,31.3527778 C56.5830195,31.3874608 56.5564972,31.4138261 56.5392341,31.4401915 C56.5591651,31.582376 56.5787822,31.7223635 56.5987131,31.8567012 C56.6580352,31.8516792 56.7200251,31.8466573 56.7911174,31.8383396 C56.8706842,31.8303358 56.9351852,31.624435 56.9679849,31.1948996 Z M54.7506277,16.8653327 C54.646108,16.7691306 54.5451977,16.6744978 54.4403641,16.5764124 C54.4458569,16.6132925 54.4511927,16.6478186 54.4565286,16.6823446 C54.5252668,16.745747 54.5988701,16.8138575 54.6701193,16.8694131 C54.6963277,16.8694131 54.7256748,16.8665882 54.7506277,16.8653327 Z M24.5144382,47.6545669 C24.415725,47.6680634 24.3140301,47.6760672 24.2165725,47.6894068 C24.462963,48.2324074 24.680791,48.5470653 24.8983051,48.6335374 C24.9606089,48.6283584 25.0265223,48.6201977 25.0936911,48.6129787 C25.1161331,48.5677809 25.1479912,48.5172473 25.1754551,48.4703233 C25.2123352,48.4671846 25.254865,48.4623195 25.2967671,48.4565129 C25.2799749,48.245747 25.0144382,48.0159918 24.5251099,47.7922003 C24.5227558,47.7493566 24.51742,47.6999215 24.5144382,47.6545669 Z M26.6833019,50.4516478 C26.5648148,50.3593691 26.4458569,50.2590866 26.3338041,50.1635122 C26.2693032,50.1716729 26.2084118,50.1798336 26.1503453,50.1848556 C26.118801,50.2958098 26.0869429,50.4120998 26.0582235,50.5199153 C26.16086,50.5439266 26.2664783,50.565113 26.3680163,50.5883396 C26.4697112,50.5414156 26.5764281,50.4984149 26.6833019,50.4516478 Z M26.6304143,52.3480697 C26.7256748,52.2713277 26.8179535,52.1956842 26.918393,52.1109385 C26.8338041,51.8152699 26.6173886,51.6836001 26.2795041,51.720951 C26.2377589,51.7256591 26.1952291,51.7306811 26.16086,51.7339768 C26.1663528,51.8129159 26.1729441,51.894366 26.1795355,51.970951 C26.3309793,52.0975989 26.4800691,52.2244036 26.6304143,52.3480697 Z M25.4695543,47.0112837 C25.482737,46.8606246 25.5012555,46.7132611 25.522285,46.567467 C25.4882298,46.5312147 25.4527621,46.4965317 25.4223164,46.4549435 C25.356403,46.4596516 25.2848399,46.4701664 25.2220653,46.4751883 C25.155838,46.55758 25.0936911,46.6415411 25.0265223,46.7181262 C25.1454802,46.8162116 25.2602009,46.9163371 25.381199,47.0192875 C25.4091337,47.0159918 25.43801,47.0136378 25.4695543,47.0112837 Z M28.7517263,48.7791745 C28.8336472,48.6523697 28.9179222,48.525408 29.0062775,48.3880885 C28.7186127,48.4226146 28.4562147,48.1164313 28.2462335,47.490882 C28.2068424,47.53043 28.1702762,47.5649561 28.1343377,47.6019931 C28.1056183,47.604661 28.0739171,47.6068581 28.0489642,47.6101538 C27.5725047,47.6308694 27.0977715,47.6440521 26.6252354,47.6653955 C26.477715,48.6919178 26.3338041,49.287806 26.1820465,49.4827213 C26.2244193,49.6335374 26.2693032,49.7815286 26.314344,49.926538 C26.4169805,49.9158663 26.5276208,49.9026836 26.636064,49.8916981 C26.72285,49.8152699 26.8154426,49.7313089 26.9075643,49.6440521 C26.9763026,49.6358914 27.0488073,49.6283584 27.1211551,49.6203547 C27.8651915,49.6837571 28.2440364,49.8631356 28.2664783,50.1405995 C28.3349027,50.1321249 28.4075643,50.1239642 28.4813245,50.1165882 C28.4590395,49.8712963 28.4376962,49.6227087 28.4143126,49.3727087 C28.6647834,49.3460295 28.7834275,49.1453076 28.7517263,48.7791745 Z M25.9303202,51.4303045 C25.898462,51.4328154 25.8653484,51.4386221 25.841651,51.4386221 C25.8562461,51.6203547 25.717828,51.7339768 25.4511927,51.8129159 C25.5739171,51.9554143 25.6897363,52.0975989 25.8165411,52.2350753 C25.8731952,52.2294256 25.9326742,52.2220496 25.994978,52.213732 C25.9869743,52.1454645 25.9816384,52.0688795 25.9774011,51.9949623 C26.0120841,51.9889987 26.0582235,51.9839768 26.1001255,51.9792687 C26.0450408,51.7995763 25.9816384,51.6176868 25.9303202,51.4303045 Z M23.915882,50.2926711 C23.8498117,50.3011456 23.7758945,50.3091494 23.712963,50.3163685 C23.6967985,50.5043785 23.6812618,50.6992938 23.6679222,50.88699 C23.7893911,50.8736503 23.8790019,50.6730854 23.915882,50.2926711 Z M22.4411488,51.0188167 C22.4460138,51.0977558 22.4543315,51.1716729 22.4596673,51.248258 C22.5332706,51.2399404 22.5991839,51.2325643 22.6704331,51.2244036 C22.5938481,51.1586472 22.5202448,51.0894382 22.4411488,51.0188167 Z M23.5491212,49.4466259 C23.5453547,49.3700408 23.5387633,49.2901601 23.5334275,49.211064 C23.4634338,49.2168707 23.3957941,49.2242467 23.3300377,49.2325643 C23.33914,49.3116604 23.3476146,49.3907564 23.3510672,49.4673415 C23.4144696,49.4596516 23.4832078,49.4516478 23.5491212,49.4466259 Z M23.4066227,45.3362994 C23.4144696,45.4094319 23.4187068,45.4860169 23.4240427,45.5516164 C23.4855618,45.5442404 23.551946,45.5387476 23.6242938,45.5312147 C23.5478657,45.4728343 23.4725361,45.4044099 23.4066227,45.3362994 Z M21.7288136,48.4144539 C21.7259887,48.3749058 21.7234777,48.3304928 21.7181419,48.2909448 C21.6522285,48.2983208 21.5811362,48.3067954 21.5177338,48.3115035 C21.5200879,48.3510515 21.5232266,48.3964062 21.5284055,48.4359542 C21.5900816,48.4276365 21.6624294,48.4226146 21.7288136,48.4144539 Z M22.6123666,52.0213277 C22.7785625,51.968597 22.9461707,51.9050377 23.1136221,51.8416353 C23.1020088,51.6992938 23.0925926,51.5569523 23.0819209,51.4171218 C22.9741055,51.3882454 22.8711551,51.3512084 22.7628688,51.3116604 C22.7827997,51.5511456 22.6668236,51.686268 22.4066227,51.7149874 C22.4712806,51.8177809 22.5425298,51.9183773 22.6123666,52.0213277 Z M21.6349655,47.1773227 C21.5284055,47.127103 21.4292216,47.0718613 21.3250157,47.0112837 C20.9978029,47.1773227 20.8424357,47.451334 20.8698996,47.8235876 C20.9978029,47.8104049 21.1299435,47.7947112 21.2641243,47.7815286 C21.2407407,47.5544413 21.3471438,47.4464689 21.5596359,47.4226146 C21.5834903,47.3880885 21.6181733,47.3510515 21.6443817,47.3113465 C21.6415568,47.2670904 21.6390458,47.2276993 21.6349655,47.1773227 Z M22.997489,48.9453704 C22.9609228,48.9478814 22.9238858,48.9500785 22.8843377,48.9551004 C22.9132141,49.319978 22.755022,49.53043 22.4238858,49.567624 C22.5254237,49.8606246 22.7457627,49.9922944 23.0770559,49.9554143 C23.1374765,49.8284526 23.1982109,49.7072976 23.2628688,49.5757847 C23.1745135,49.3667451 23.0819209,49.1559793 22.997489,48.9453704 Z M23.3166981,48.0217985 C23.2564344,48.0266635 23.1982109,48.0318424 23.1415568,48.0398462 C23.1440678,48.0720182 23.1470496,48.1007376 23.1495606,48.1377746 C23.2115505,48.206199 23.274639,48.2746234 23.3419648,48.3436755 C23.3353735,48.2324074 23.3247018,48.1272599 23.3166981,48.0217985 Z M45.4981168,28.4725204 C45.4813245,28.3355148 45.4637476,28.2033741 45.4466416,28.0610326 C45.2857815,28.0740584 45.1355932,28.0872411 44.9836786,28.1019931 C44.9956058,28.2008632 45.0086315,28.2947112 45.0207156,28.3948368 C45.0907094,28.4620056 45.1589768,28.53043 45.2306968,28.5938324 C45.3174827,28.5542844 45.4070935,28.5159918 45.4981168,28.4725204 Z M19.829096,14.8538763 C19.829096,14.8800847 19.831607,14.9106874 19.8333333,14.9383082 C19.9031701,14.9990427 19.9715945,15.0624451 20.0414313,15.127103 C20.0665411,15.1255336 20.0979284,15.1228657 20.1299435,15.1206685 C20.1269617,15.089909 20.1244507,15.0596202 20.1220967,15.028076 C20.0426868,14.9712649 19.9742624,14.9094319 19.905838,14.847285 C19.8805712,14.8499529 19.8501255,14.8513653 19.829096,14.8538763 Z M19.428123,14.7892185 C19.4624922,14.7868644 19.4963905,14.7849812 19.5360954,14.7824702 C19.5258945,14.6796767 19.5191463,14.572646 19.5127119,14.4673415 C19.4463277,14.5374922 19.3913999,14.6084275 19.3356874,14.6796767 C19.363779,14.7190678 19.3950094,14.7561048 19.428123,14.7892185 Z M20.3700565,14.6056026 C20.3750785,14.6757533 20.3805712,14.7454331 20.3859071,14.8132298 C20.4794413,14.8066384 20.5677966,14.8011456 20.6654112,14.7934557 C20.6627433,14.7614407 20.6627433,14.7353892 20.6575643,14.7007062 C20.5930634,14.6426397 20.5359385,14.5792373 20.4769303,14.5163057 C20.4398933,14.5505179 20.4016008,14.5768832 20.3700565,14.6056026 Z M20.7208098,11.9558851 C20.6627433,11.9598085 20.6073446,11.963575 20.5558694,11.9674984 C20.5586943,11.9938638 20.5599498,12.0257219 20.5599498,12.0520873 C20.6206842,12.1153327 20.6785938,12.1759102 20.744978,12.2393126 C20.7366604,12.144209 20.7286566,12.0489485 20.7208098,11.9558851 Z M22.7655367,11.4108443 C22.7733836,11.5034369 22.7815443,11.5957156 22.7906466,11.6931733 C22.8526365,11.6879944 22.920904,11.6840709 22.9885436,11.6787351 C22.9855618,11.6484463 22.9830508,11.6206685 22.9808537,11.5903798 C22.9039548,11.5298023 22.834275,11.4674984 22.7655367,11.4108443 Z M21.7933145,14.4235562 C21.8579724,14.4847615 21.9315756,14.545339 22.0003139,14.6032486 C22.0607345,14.5374922 22.116447,14.466086 22.1864407,14.3949937 C22.1404583,14.3604677 22.1032643,14.3209196 22.0637163,14.2838826 C21.9715945,14.2893754 21.8724105,14.2970653 21.7854677,14.3022442 C21.7879787,14.3417922 21.7906466,14.3865191 21.7933145,14.4235562 Z M14.8124608,15.0068895 C14.8060264,14.8775738 14.7978657,14.7521814 14.7873509,14.6282015 C14.6939736,14.6347928 14.5976146,14.6426397 14.502511,14.6479755 C14.5051789,14.6796767 14.5078468,14.7060421 14.5105148,14.7375863 C14.54457,14.8284526 14.5775267,14.9251255 14.6117389,15.0200722 C14.6765537,15.0175612 14.7454488,15.0109699 14.8124608,15.0068895 Z M23.6613308,13.9948054 C23.5249529,13.9646736 23.3934401,13.9384652 23.2628688,13.9119429 C23.1666667,13.9199466 23.07172,13.9252825 22.9808537,13.9279504 C22.9855618,13.9948054 22.9896422,14.0599341 22.997489,14.1280446 C23.0872567,14.3209196 23.2958255,14.3932674 23.6070308,14.3709824 C23.6308851,14.3684714 23.6613308,14.3669021 23.6913057,14.3656466 C23.6865976,14.2998901 23.6812618,14.2324074 23.6756121,14.1675926 C23.6967985,14.1390301 23.7231638,14.1073289 23.7493723,14.0713905 C23.717828,14.0480069 23.6865976,14.0199153 23.6613308,13.9948054 Z M19.0216573,16.8957784 C18.9822662,16.8984463 18.9427181,16.9023697 18.908349,16.9036252 C18.950408,17.0040647 18.9965474,17.0990113 19.0444131,17.1939579 C19.0748588,17.191447 19.1035782,17.188779 19.1326114,17.1859542 C19.1854991,17.1148619 19.2487445,17.0381199 19.309322,16.9631042 C19.3041431,16.8957784 19.2959824,16.8259416 19.2908035,16.7559479 C19.2225361,16.7600282 19.1578782,16.7653641 19.1010672,16.7691306 C19.0748588,16.8116604 19.0444131,16.8576428 19.0216573,16.8957784 Z M14.4733208,18.4445857 C14.4984306,18.4420747 14.5313873,18.4420747 14.5577527,18.4379944 C14.5552417,18.3758475 14.5499058,18.3099341 14.54457,18.2372724 C14.5156937,18.2399404 14.4866604,18.2440207 14.4613936,18.2440207 C14.4654739,18.3165254 14.4708098,18.3841651 14.4733208,18.4445857 Z M14.9193346,12.443801 C14.866447,12.5136378 14.8149718,12.584887 14.7663214,12.6550377 C14.8177966,12.6506434 14.8771186,12.6484463 14.9315756,12.6432674 C14.9271814,12.5771971 14.9218456,12.5109699 14.9193346,12.443801 Z M16.8741368,15.1534683 C16.925769,15.1479755 16.9849341,15.1440521 17.049592,15.1415411 C17.047081,15.1139203 17.0440992,15.0804928 17.0431576,15.0541274 C17.0141243,15.0571092 16.9795982,15.0596202 16.9562147,15.0624451 C16.6446955,15.1600596 16.4836786,15.2760358 16.4902699,15.3814972 C16.4970182,15.4828782 16.5051789,15.5815913 16.5130257,15.6796767 C16.7766792,15.6613151 16.8953233,15.4816227 16.8741368,15.1534683 Z M18.0419021,12.9174357 C18.0376648,12.8512084 18.032172,12.785295 18.0269931,12.7129473 C17.4626491,12.2393126 16.7397991,12.0217985 15.8573446,12.0837884 C15.8294099,12.084887 15.8005336,12.0861425 15.7700879,12.0891243 C15.7766792,12.1865819 15.7845261,12.2893754 15.789705,12.3832235 C15.8294099,12.5174043 15.8691149,12.6506434 15.905995,12.7816855 C15.8873195,12.906607 15.866447,13.0348242 15.8477715,13.161629 C15.9220025,13.2535938 15.9904269,13.342263 16.0721908,13.4354834 C15.8890458,13.7090239 15.707941,13.98586 15.5301318,14.2562618 C15.5971438,14.3237445 15.6713748,14.3865191 15.7448211,14.446312 C15.8979912,14.409275 16.0524168,14.3656466 16.207941,14.3260986 C16.3753923,14.3446171 16.5393911,14.3632925 16.7027621,14.3788293 C16.7027621,14.3524639 16.7000942,14.3209196 16.6975832,14.2945543 C16.6145637,14.0677809 16.5326428,13.8458726 16.4483679,13.6137633 C16.9507219,13.381811 17.4508788,13.1562932 17.9557439,12.9224576 C17.9772442,12.9224576 18.0072191,12.9199466 18.0419021,12.9174357 Z M16.3096359,16.8074231 C16.368801,16.7350753 16.4287508,16.6559793 16.4930948,16.5793942 C16.4231011,16.584887 16.3598556,16.589752 16.2951977,16.5925769 C16.2989642,16.6649247 16.304457,16.7402542 16.3096359,16.8074231 Z M14.9139987,16.4051946 C14.9063089,16.3072662 14.900973,16.2127903 14.8942247,16.114705 C14.7686755,16.1241212 14.6448525,16.1333804 14.5210295,16.1427966 C14.5287194,16.2402542 14.5354677,16.3341023 14.5408035,16.4317169 C14.6001255,16.4988858 14.6635279,16.5673101 14.7237916,16.6297709 C14.7873509,16.5582078 14.8482423,16.4819366 14.9139987,16.4051946 Z M30.6567797,16.9036252 C30.7463905,16.8957784 30.8345888,16.8904426 30.9259259,16.8825957 C30.9587257,16.8535625 30.9954488,16.8193503 31.0323289,16.7904739 C31.0575957,16.7876491 31.0869429,16.7876491 31.1167608,16.7849812 C31.0772128,16.6901915 31.0378217,16.5977558 31.004865,16.5026522 C30.8769617,16.5134809 30.7490584,16.5213277 30.6195857,16.5315286 C30.6315129,16.6529975 30.6434401,16.7812147 30.6567797,16.9036252 Z M45.6785938,14.9196328 C45.7634965,15.2947112 45.868801,15.4764438 46.0153798,15.4645166 C46.0745449,15.4609071 46.1338669,15.4554143 46.1985248,15.451334 C46.1853421,15.3603107 46.1760829,15.2666196 46.1643126,15.1730854 C46.0483365,15.0856717 45.9442875,14.9937068 45.8372567,14.9062932 C45.7831136,14.9106874 45.7289705,14.9146108 45.6785938,14.9196328 Z M32.846516,14.4026836 C32.8752354,14.3998588 32.9081921,14.3975047 32.9427181,14.3949937 C32.9361268,14.3286095 32.930791,14.2601852 32.9229441,14.1903484 C32.888575,14.1916039 32.8543628,14.1941149 32.8239171,14.1970967 C32.831764,14.2667765 32.8383553,14.3369272 32.846516,14.4026836 Z M25.8446328,45.4357972 C25.9378531,45.4257533 26.0288763,45.4150816 26.1330822,45.4044099 C26.1214689,45.2595574 26.1082863,45.1032486 26.0936911,44.9558851 C29.1197426,44.6391871 32.1365348,44.3253139 35.1206842,44.0167765 C38.0845888,43.7080822 41.0459824,43.3995449 43.9811676,43.0906937 C44.0630885,43.2677181 44.1514438,43.44129 44.2383867,43.6074859 C44.4295355,43.5862994 44.4996861,43.4307753 44.4668864,43.1432674 C44.4943503,43.1088983 44.5313873,43.0751569 44.5679535,43.0299592 C44.9863465,42.9879002 45.4150973,42.9427024 45.8372567,42.8982894 C46.029818,44.5393754 46.2248901,46.1831293 46.4256121,47.8315913 C49.0188324,44.6603735 51.5676397,41.5393754 54.0819209,38.4634181 C50.8524796,35.9966886 47.631199,33.5324702 44.4202762,31.0786095 C44.5787822,32.384322 44.7343063,33.698666 44.8901444,35.020543 C40.4351852,35.4452134 35.9370684,35.8722379 31.3937539,36.307737 C26.8047709,36.7479441 22.1823603,37.1916039 17.4993723,37.63699 C16.4231011,37.7430791 15.8717828,37.6848556 15.8573446,37.4659291 C15.8294099,37.5159918 15.8030446,37.5662116 15.7729127,37.6082706 C15.7369743,37.6106246 15.7032329,37.6131356 15.6660389,37.6189422 C14.26742,37.6164313 12.6768675,36.8328468 10.8708412,35.2394696 C9.33694288,33.223619 8.52385436,31.1792059 8.41070308,29.1165882 C8.24293785,26.0954018 8.0754865,23.1062304 7.90913371,20.1449937 C7.72991212,16.9351695 8.94114878,14.2867075 11.5489642,12.1771657 C12.7834275,11.4346987 13.8822976,11.0269774 14.8149718,10.963575 C15.8375706,10.8938952 16.8586001,10.8251569 17.8766478,10.7564187 C17.8898305,10.9568267 17.9624922,11.0494193 18.0878845,11.0401601 C18.0812932,10.9436441 18.0748588,10.8461864 18.0666981,10.743236 C20.5282486,10.5771971 22.9764595,10.4108443 25.4130571,10.2460609 C25.5120841,10.3094633 25.6161331,10.3742781 25.720339,10.4321877 C25.801946,10.3610954 25.8841808,10.2845104 25.9750471,10.2079253 C29.9389517,9.93893597 33.8724105,9.67387006 37.774639,9.4081764 C41.4839925,9.15770559 45.1688638,8.90723478 48.8300377,8.65896108 L7.1440678,0.0531858129 L6.62743252,8.0604049 L4.57580038,17.3519931 L4.49136849,25.3463434 L2.75141243,32.9750314 L2.56418707,40.6049749 L0,46.5385907 L0.0208725675,53.4698525 L14.4687696,54.669005 C12.9956058,53.9860169 11.8011613,52.8927966 10.9064658,51.3849498 C9.95919648,49.4540019 9.46327684,47.926538 9.40160075,46.7947112 C9.42357188,46.7576742 9.44758318,46.7261299 9.4725361,46.6809322 C12.2295982,46.3964062 14.9758318,46.1088983 17.7027621,45.8240584 C20.4147834,45.5417294 23.1189579,45.2619115 25.8074388,44.9846045 C25.8195229,45.1352637 25.8309793,45.2907878 25.8446328,45.4357972 Z M51.0188324,10.8832235 C51.0834903,10.8780446 51.1403013,10.8755336 51.2085687,10.8701977 C51.2270873,10.743236 51.2368173,10.6140772 51.2534526,10.4792687 C51.0608914,10.44129 50.873666,10.3976616 50.6850282,10.3556026 C50.6654112,10.3832235 50.6374765,10.4161802 50.6173886,10.4376805 C50.6205273,10.4674984 50.6260201,10.4927652 50.6307282,10.5232109 C50.7589454,10.6470339 50.8868487,10.7670904 51.0188324,10.8832235 Z M24.237602,15.1151758 C24.3273697,15.1073289 24.4210609,15.10215 24.5144382,15.0936755 C24.5065913,15.0384338 24.5029818,14.9805242 24.497646,14.9172787 C24.4672003,14.9196328 24.440678,14.9223007 24.415725,14.9251255 C24.3510672,14.990725 24.2930006,15.0530289 24.237602,15.1151758 Z M50.4645323,16.7929849 C50.4513497,16.6978814 50.4370684,16.6001099 50.4251412,16.5026522 C50.3658192,16.5067326 50.31199,16.510656 50.2616133,16.5158349 C50.2671061,16.5448682 50.2718142,16.5710766 50.2749529,16.6001099 C50.3328625,16.6649247 50.396108,16.7295825 50.4645323,16.7929849 Z M48.849027,16.1398148 C48.915882,16.1996077 48.9899561,16.2598713 49.0558694,16.3235876 C49.111425,16.3179379 49.1654112,16.3155838 49.2195543,16.310248 C49.2048023,16.20871 49.1927181,16.1057596 49.1771814,15.9987288 C49.1166039,15.9472536 49.0558694,15.8956215 48.992467,15.8406937 C48.9344005,15.8443032 48.8708412,15.849639 48.811833,15.8538763 C48.8237602,15.9489799 48.8367859,16.0465945 48.849027,16.1398148 Z M25.4672003,15.2272285 C25.4486817,15.2694444 25.4248274,15.3064815 25.4037979,15.3471281 C25.4091337,15.3789862 25.4118016,15.4094319 25.4130571,15.4395637 C25.5144382,15.4328154 25.5856874,15.5519303 25.6161331,15.8286095 C25.7412116,15.8191933 25.8709981,15.8089925 26.0026679,15.7983208 C25.9918393,15.6928594 25.9816384,15.5834746 25.9750471,15.4789548 C25.9631199,15.3471281 25.796924,15.2628531 25.4672003,15.2272285 Z M26.1898933,12.627103 C26.0318581,12.3380257 25.8888889,12.181403 25.759887,12.1733992 C25.7018205,12.1759102 25.6437539,12.181403 25.5910232,12.1842279 C25.5591651,12.2871783 25.5343691,12.3871469 25.5120841,12.4846045 C25.5646579,12.6669648 25.7704018,12.8169962 26.1330822,12.9329724 C26.1478343,12.8303358 26.1702762,12.7298964 26.1898933,12.627103 Z M47.58914,32.3637633 C47.6140929,32.3610954 47.6443817,32.3577997 47.6734149,32.3552888 C47.5466102,32.1101538 47.4436598,31.98586 47.3462021,31.9940207 C47.3121469,31.9965317 47.2774639,32.0023384 47.2408977,32.0048493 C47.2274011,32.1365191 47.212963,32.268032 47.1985248,32.4004865 C47.2354049,32.4400345 47.269774,32.4795825 47.3038293,32.5191306 C47.3714689,32.5133239 47.430634,32.5084589 47.5018832,32.5004551 C47.5324859,32.4605932 47.5574388,32.4080195 47.58914,32.3637633 Z M28.6304143,16.389344 C28.7942561,16.5053202 28.9681419,16.6164313 29.1368487,16.7325643 C29.1530132,16.6322819 29.1672944,16.5370213 29.1842436,16.4367389 C29.0775267,16.3072662 28.9704959,16.1793628 28.8705273,16.0450251 C28.8060264,16.0500471 28.7410546,16.0542844 28.6845574,16.0596202 C28.6647834,16.1702605 28.6445386,16.2838826 28.6304143,16.389344 Z M29.0235405,11.7485719 C28.9574702,11.7535938 28.8917137,11.7590866 28.8281544,11.7645794 C28.8336472,11.802715 28.8360013,11.8384965 28.8389831,11.8780446 C28.9022285,11.8727087 28.9668864,11.8700408 29.0338983,11.8648619 C29.0315443,11.8253139 29.0262084,11.7882768 29.0235405,11.7485719 Z M26.8706842,11.9000157 C26.9075643,11.9373666 26.9524482,11.9701664 26.9948211,12.0070465 C27.0488073,12.0029661 27.1002825,11.9981011 27.1605461,11.9938638 C27.1503453,11.8912272 27.1398305,11.7805869 27.1305712,11.6748117 C27.0946328,11.6774796 27.0709353,11.6787351 27.0488073,11.6799906 C26.9866604,11.7565756 26.9271814,11.8301789 26.8706842,11.9000157 Z M27.9668864,12.5957156 C27.9709667,12.6351067 27.9788136,12.6748117 27.9813245,12.7088669 C28.0459824,12.763167 28.1158192,12.8146422 28.1847144,12.8672159 C28.2187696,12.8643911 28.2558067,12.8618801 28.2953547,12.8595261 C28.2926868,12.8328468 28.2900188,12.8064815 28.2887633,12.7801161 C28.2134338,12.7196955 28.1450094,12.6536252 28.0739171,12.5875549 C28.0422159,12.5903798 28.0062775,12.5927338 27.9668864,12.5957156 Z M25.0634024,13.7826271 C25.0634024,13.7524953 25.059322,13.7244036 25.056811,13.6956842 C24.8565599,13.466086 24.7429379,13.2352323 24.7256748,13.0319994 C24.7470182,13.000769 24.7744821,12.9725204 24.799592,12.9345417 C24.7678908,12.9014281 24.7349341,12.8643911 24.7071563,12.825 C24.638732,12.8303358 24.5728186,12.8355148 24.5065913,12.8410075 C24.5307596,13.104818 24.4580979,13.2470025 24.2667922,13.2603421 C24.2719711,13.3315913 24.2799749,13.3957784 24.2851538,13.4607502 C24.3352166,13.6454645 24.5591651,13.8011456 24.962963,13.9014281 C24.9921532,13.8590552 25.0291902,13.8223321 25.0634024,13.7826271 Z M14.9734777,27.3803986 C14.8717828,27.3880885 14.7729127,27.3962492 14.6713748,27.4051946 C14.6765537,27.4819366 14.6820465,27.5519303 14.6869115,27.6242781 C14.7873509,27.6153327 14.8876334,27.6073289 14.987602,27.5993252 C14.9824231,27.527919 14.9786566,27.4568267 14.9734777,27.3803986 Z M16.4309479,35.4896265 C16.4287508,35.4582392 16.4256121,35.4287351 16.4256121,35.3976616 C16.3174827,35.2997332 16.2134338,35.2072976 16.1090709,35.1128217 C16.0698368,35.1497018 16.0324859,35.1784212 15.9984306,35.2072976 C16.0009416,35.2394696 16.0036095,35.2706999 16.0062775,35.302715 C16.0830195,35.3711394 16.1512869,35.4452134 16.2332078,35.5084589 C16.2951977,35.5028092 16.3651915,35.4977872 16.4309479,35.4896265 Z M14.0725047,36.1545669 C13.9668864,36.1942718 13.8625235,36.2386849 13.7584746,36.2815286 C13.7609856,36.3209196 13.7638104,36.3604677 13.7663214,36.3975047 C13.8722536,36.386833 13.9786566,36.3760044 14.0856874,36.3686284 C14.0827056,36.2997332 14.0778406,36.2289548 14.0725047,36.1545669 Z M10.8681733,18.9036252 C10.8658192,18.8722379 10.8658192,18.8402228 10.8640929,18.8141714 C10.7890772,18.7476303 10.7217514,18.6848556 10.6528562,18.6212963 C10.5977715,18.6948996 10.5450408,18.7663057 10.494978,18.8428908 C10.494978,18.8689422 10.497646,18.8997018 10.5003139,18.931403 C10.5566541,18.9944915 10.6219397,19.0582078 10.6822034,19.1161174 C10.7456058,19.0486347 10.8035154,18.9762869 10.8681733,18.9036252 Z M8.92263026,19.2490427 C8.85907094,19.2543785 8.80398619,19.2598713 8.74607659,19.2625392 C8.68079096,19.3389674 8.62162586,19.4182203 8.56246077,19.4948054 C8.62931576,19.5564815 8.69836786,19.6186284 8.76946014,19.6820308 C8.83035154,19.6766949 8.88308223,19.6727715 8.94883867,19.6675926 C8.94114878,19.5330979 8.93016321,19.3890301 8.92263026,19.2490427 Z M9.04394225,22.9113151 C9.11629002,22.9058223 9.18079096,22.9008004 9.25502197,22.8953076 C9.31434401,22.8317483 9.37633396,22.7633239 9.44099184,22.698666 C9.26804771,22.6051318 9.09651601,22.5101852 8.92482737,22.4102166 C8.89359699,22.4546296 8.85655995,22.4970025 8.82470182,22.5406309 C8.83035154,22.6076428 8.83270559,22.6762241 8.83709981,22.7474733 C8.9039548,22.800204 8.97269303,22.8582706 9.04394225,22.9113151 Z M10.8640929,24.9481952 C10.9221594,24.9450565 10.977715,24.9398776 11.0436284,24.9350126 C11.0715631,24.8315913 11.101538,24.7262869 11.1332392,24.6156466 C11.0291902,24.55758 10.9328311,24.4926083 10.8312932,24.4332863 C10.7666353,24.5070465 10.7074702,24.5839454 10.6453233,24.6548807 C10.6481481,24.6867389 10.6505022,24.7182831 10.6505022,24.7501412 C10.7192404,24.8160546 10.7890772,24.8873038 10.8640929,24.9481952 Z M45.5775267,28.4645166 C45.5853735,28.5257219 45.5919648,28.5859856 45.5998117,28.6429535 C45.6566227,28.5806497 45.7159448,28.5148933 45.7738544,28.4489799 C45.7077841,28.4555712 45.6446955,28.4593377 45.5775267,28.4645166 Z M43.1078154,25.8303358 C43.0354677,25.8370841 42.9774011,25.842263 42.9125863,25.8475989 C42.9193346,25.9124137 42.9270245,25.9728343 42.9325173,26.0283898 C42.9982737,26.023054 43.0641871,26.0163057 43.1275895,26.0109699 C43.1198996,25.9560421 43.1145637,25.8949937 43.1078154,25.8303358 Z M46.5968299,27.5373352 C46.4915254,27.4478814 46.3857502,27.3513653 46.2911174,27.2562618 C46.2332078,27.3355148 46.1760829,27.4147677 46.1301004,27.4872724 C46.1985248,27.5519303 46.267263,27.6153327 46.3394539,27.6768519 C46.4256121,27.6679065 46.5178908,27.6613151 46.6115819,27.6547238 C46.6075016,27.6153327 46.6021657,27.5757847 46.5968299,27.5373352 Z M22.6272756,36.7349184 C22.591494,36.7374294 22.5596359,36.7399404 22.5357815,36.743236 C22.6020088,36.8116604 22.6636849,36.8774168 22.7313245,36.9430163 C22.7655367,36.9381513 22.7999058,36.9357972 22.8419648,36.9323446 C22.7655367,36.8698839 22.6942875,36.8031858 22.6272756,36.7349184 Z M17.7581607,34.1972536 C17.7553358,34.1627276 17.7529818,34.1233365 17.7501569,34.0839454 C17.6763967,34.025408 17.603892,33.9701664 17.5340552,33.909275 C17.4626491,33.9150816 17.3915568,33.9224576 17.3264281,33.9281073 C17.3330195,34.0312147 17.3413371,34.1340082 17.3466729,34.2368016 C17.4227872,34.305226 17.4945072,34.3734934 17.5706215,34.4425455 C17.6315129,34.3603107 17.6917765,34.2813716 17.7581607,34.1972536 Z M42.2490584,31.3083647 C42.2412116,31.2473164 42.2346202,31.1867389 42.2278719,31.1208255 C42.1225675,31.0944601 42.0276208,31.0655838 41.9270245,31.0334118 C41.8731952,31.1423258 41.8188952,31.2449623 41.774639,31.3504237 C41.8363151,31.4138261 41.9103892,31.4822505 41.985091,31.545339 C42.0144382,31.542828 42.0431576,31.5404739 42.0765851,31.5348242 C42.1279033,31.4615348 42.1861268,31.381811 42.2490584,31.3083647 Z M39.8113622,30.1898776 C39.7625549,30.1947426 39.7057439,30.1972536 39.6505022,30.2030603 C39.655838,30.2473164 39.66086,30.2893754 39.6635279,30.3290804 C39.7204959,30.3240584 39.7743252,30.3188795 39.8268989,30.3133867 C39.8221908,30.2761927 39.8166981,30.2317797 39.8113622,30.1898776 Z M10.6374765,21.2437068 C10.6666667,21.2413528 10.6928751,21.238371 10.7294413,21.2360169 C10.7270873,21.2146736 10.7245763,21.1870527 10.7245763,21.156607 C10.6876962,21.159275 10.6613308,21.1619429 10.636221,21.1619429 C10.5911802,21.1989799 10.5541431,21.2278562 10.5213434,21.2515537 C10.4921532,21.2546924 10.4672003,21.2568895 10.4422473,21.2594005 C10.3419648,21.2451193 10.2390144,21.2253453 10.1413999,21.201334 C10.0805085,21.3058537 10.0177338,21.4088041 9.95919648,21.51301 C10.0279347,21.5786095 10.1018519,21.6409134 10.1702762,21.6991368 C10.1952291,21.6977244 10.2299121,21.6947426 10.259887,21.6923886 C10.3841808,21.5472222 10.514752,21.396877 10.6374765,21.2437068 Z M12.0382925,21.7714846 C12.1016949,21.7658349 12.1702762,21.7604991 12.2387006,21.755791 C12.2336786,21.6842279 12.2295982,21.6129787 12.2242624,21.5406309 C12.1542687,21.5472222 12.0860013,21.5524011 12.0262084,21.557737 C12.0317012,21.6289862 12.0356246,21.7000785 12.0382925,21.7714846 Z M12.0883553,16.2044727 C12.0938481,16.2443346 12.0962021,16.2796453 12.0962021,16.3209196 C12.1967985,16.4077056 12.2917451,16.4988858 12.3946955,16.589752 C12.4180791,16.5487916 12.4497803,16.510656 12.4761456,16.4632611 C12.4734777,16.4408192 12.4711237,16.4131984 12.4711237,16.3880885 C12.4023854,16.3209196 12.3432203,16.2575173 12.2810734,16.1901915 C12.217828,16.1941149 12.1476773,16.1996077 12.0883553,16.2044727 Z M12.3995606,21.1090552 C12.4274953,21.1081136 12.4618644,21.1038763 12.4891714,21.1013653 C12.4865035,21.0447112 12.4813245,20.9852323 12.4789705,20.9232423 C12.4497803,20.9257533 12.415725,20.9285782 12.3892028,20.9298336 C12.3946955,20.993236 12.3970496,21.0511456 12.3995606,21.1090552 Z M13.576742,19.5265066 C13.6344947,19.5233679 13.7041745,19.5169335 13.7691463,19.5115976 C13.8571877,19.3705116 13.9456999,19.2203233 14.0356246,19.075 C13.985248,18.9802103 13.9391086,18.8852637 13.8995606,18.790317 C13.9301632,18.750769 13.9668864,18.7083961 14.0091023,18.6633553 C13.9618644,18.63699 13.9218456,18.612037 13.8854363,18.5845731 C13.8546767,18.5870841 13.8204645,18.589752 13.7953547,18.589752 C13.7691463,18.6238073 13.7412116,18.6531544 13.7135907,18.6872097 C13.6795355,18.6897207 13.6448525,18.6916039 13.6054614,18.6948996 C13.6476773,18.7322505 13.6844005,18.7706999 13.7214375,18.8033427 C13.7244193,18.8337884 13.7244193,18.8614093 13.7267734,18.8877746 C13.6688638,18.990725 13.6054614,19.0986974 13.5524168,19.2071406 C13.5604206,19.3177809 13.5682674,19.4205744 13.576742,19.5265066 Z M13.6555242,15.2072976 C13.5946328,15.2113779 13.5382925,15.2151444 13.4839925,15.2181262 C13.3942247,15.2245606 13.3008475,15.3628217 13.2242624,15.6187853 C13.3430634,15.6110954 13.4127433,15.7744664 13.4339297,16.1057596 C13.4654739,16.0728029 13.5039234,16.0423572 13.5354677,16.0040647 C13.5604206,16.0028092 13.5946328,16.0015537 13.6250785,15.9987288 C13.7214375,16.0621312 13.8152856,16.1283584 13.9169805,16.1878374 C13.9816384,16.114705 14.0409605,16.0385907 14.1093848,15.9620056 C13.9720653,15.9723635 13.8322348,15.7218927 13.6555242,15.2072976 Z M12.6029504,15.3734934 C12.6622724,15.3024011 12.7269303,15.2245606 12.7887633,15.1479755 C12.7584746,15.1283584 12.7294413,15.1045041 12.697897,15.0779818 C12.658506,15.0804928 12.6184871,15.0834746 12.579096,15.0856717 C12.5186755,15.1600596 12.4576271,15.2313089 12.3995606,15.2969083 C12.4365976,15.3260986 12.4813245,15.3551318 12.5238544,15.3789862 C12.5489642,15.3760044 12.5740741,15.3734934 12.6029504,15.3734934 Z M11.8325487,23.015521 C11.8983051,23.0771971 11.9722222,23.1302417 12.0382925,23.1884652 C12.1081293,23.1829724 12.1726303,23.176381 12.2495292,23.1697897 C12.2666353,23.0693503 12.2834275,22.9638889 12.3086943,22.8610954 C12.2757376,22.8359856 12.2495292,22.8110326 12.2242624,22.7818424 C12.1508161,22.7870213 12.0830195,22.7923572 12.0171061,22.7991055 C11.9540176,22.8756905 11.8906152,22.9478814 11.8325487,23.015521 Z M12.6161331,27.7074545 C12.5408035,27.6416981 12.4711237,27.5806497 12.3995606,27.5147363 C12.3389831,27.6189422 12.2732266,27.7289548 12.215317,27.8366133 C12.3546767,27.8923258 12.4945072,27.9527464 12.6344947,28.0104991 C12.6279033,27.9078625 12.6200565,27.8104049 12.6161331,27.7074545 Z M10.0688952,23.3463434 C10.0991839,23.3439893 10.1282172,23.3425769 10.158349,23.339752 C10.153484,23.2763497 10.1505022,23.2134181 10.1467357,23.1514281 C10.116447,23.1537822 10.0860013,23.156607 10.0571249,23.1589611 C10.06199,23.2225204 10.0649718,23.2827841 10.0688952,23.3463434 Z M11.296924,21.0170904 C11.299592,21.0511456 11.3024168,21.0841023 11.3049278,21.1104677 C11.33914,21.1081136 11.3785311,21.1038763 11.4103892,21.1013653 C11.4723792,21.0287037 11.537037,20.9524325 11.6059322,20.8717671 C11.6029504,20.8441463 11.6029504,20.8137006 11.6004394,20.7819994 C11.5555556,20.7834118 11.5213434,20.7873352 11.4866604,20.7896893 C11.4234149,20.8665882 11.3551475,20.9430163 11.296924,21.0170904 Z M10.2179849,22.5196014 C10.0571249,22.5735876 9.89626491,22.6222379 9.74011299,22.6762241 C9.74309479,22.7025895 9.74309479,22.7344476 9.74560578,22.7648933 C9.76946014,22.7633239 9.79456999,22.760656 9.83003766,22.7584589 C9.91964846,22.7187539 10.0200879,22.6840709 10.116447,22.6459353 C10.158349,22.6738701 10.1952291,22.6974105 10.2299121,22.7267577 C10.2283427,22.659118 10.2233208,22.5867702 10.2179849,22.5196014 Z M13.7189266,24.8080508 C13.5778406,24.7182831 13.4469554,24.6288293 13.3152856,24.5294884 C13.2572191,24.6420119 13.1936598,24.7513967 13.1399874,24.8554457 C13.3336472,24.9110013 13.5342122,24.961221 13.7319523,25.0161488 C13.7267734,24.9450565 13.7244193,24.879457 13.7189266,24.8080508 Z M12.9246704,21.5786095 C12.8231325,21.4891557 12.7164156,21.3993879 12.6136221,21.3082078 C12.5436284,21.312602 12.4789705,21.317467 12.415725,21.3228029 C12.4274953,21.5340395 12.4419335,21.7394696 12.4551161,21.9442718 C12.7769931,21.8256277 12.9325173,21.7000785 12.9246704,21.5786095 Z M13.1399874,16.0332549 C13.1371626,16.0028092 13.1333961,15.9620056 13.1333961,15.926381 C13.0236974,15.8034997 12.9169805,15.6770088 12.8163842,15.5530289 C12.7887633,15.59242 12.7611425,15.6217671 12.7387006,15.6534683 C12.7438795,15.725973 12.7481168,15.7983208 12.7529818,15.8640772 C12.8480854,15.951334 12.9472693,16.0423572 13.0514752,16.1333804 C13.0778406,16.1002668 13.1053045,16.069978 13.1399874,16.0332549 Z" id="Fill-38" fill="#CC0042" mask="url(#mask-2)"></path>
                        </g>
                    </g>
                </g>
            </g>
        </g>
    </g>
</svg>